<svg xmlns="http://www.w3.org/2000/svg" xmlns:xlink="http://www.w3.org/1999/xlink" width="146" height="257"><defs><linearGradient id="a" x1="52.493%" x2="52.493%" y1="78.582%" y2="20.181%"><stop offset="0%" stop-color="#009FE8"/><stop offset="97.584%" stop-color="#0069CD"/><stop offset="100%" stop-color="#06C"/></linearGradient><path id="b" d="M0 0h21v98H0z"/></defs><g fill="none" fill-rule="evenodd" transform="translate(3 1)"><ellipse cx="71.5" cy="87.5" fill="url(#a)" rx="52.5" ry="55.5"/><g transform="translate(37)"><path fill="#DAE8F7" stroke="#14428B" stroke-linejoin="round" d="M.002 108.75c-.159-20.018 8.201-28.426 9.02-29.106L14.51 112l-10.986 9.69c-1.43 1.26-3.42-.046-3.437-2.254L.002 108.75zm65.578 0c.16-20.018-8.2-28.426-9.02-29.106L51.074 112l10.986 9.689c1.43 1.26 3.42-.046 3.436-2.254l.085-10.684z"/><path stroke="#FFF" stroke-linecap="round" stroke-width="2" d="M32.723 121.65V108m3.667 13.65v-8.168m-7.792 8.168v-8.168m4.125-10.134v-3.105"/><path stroke="#FFF" stroke-linecap="round" stroke-linejoin="round" stroke-width="2" d="M13.856 55.34c-.35 4.288-.485 8.196-.517 11.365-.051 4.934.143 8.077.143 8.077"/><path stroke="#FFF" stroke-linecap="round" stroke-linejoin="round" d="M22.52 21.37c-2.718 4.887-4.647 10.583-6.01 16.4"/><path stroke="#14428B" stroke-linecap="round" stroke-linejoin="round" d="M46.638 18.273L37.651 2.758c-2.13-3.677-7.455-3.677-9.585 0L19.08 18.273"/><path fill="#59BBE5" d="M46.18 18.003L37.558 3.118c-2.044-3.528-7.153-3.528-9.197 0L19.74 18.003h26.44z"/><path stroke="#14428B" stroke-linecap="round" d="M22.338 21.37l5.607-11.18m1.87-3.725L31.06 4.6"/><path fill="#FFF" stroke="#14428B" stroke-linecap="round" d="M43.114 126.73H22.489v-4.568l-.142-.28-2.286.03a4.58 4.58 0 0 1-4.602-3.84L9.607 81.91a39.184 39.184 0 0 1-.487-7.338S7.058 40.86 18.159 20.749h29.386c11.1 20.111 9.039 53.823 9.039 53.823a39.184 39.184 0 0 1-.489 7.338l-5.82 35.976a4.772 4.772 0 0 1-4.822 4.002l-2.34.274v4.111"/><path d="M12.546 56.154c-.364 4.332-.503 8.28-.537 11.482-.053 4.985.148 8.16.148 8.16M21.578 22c-2.825 4.938-4.828 10.692-6.245 16.569" stroke="#14428B" stroke-linecap="round" stroke-linejoin="round"/><g transform="translate(33 23)"><mask id="c" fill="#fff"><use xlink:href="#b"/></mask><path fill="#DAE8F7" d="M20.87 51.913c.151-2.994 1.414-33.4-8.578-51.913H-.155c-4.149 0-4.149 32.665 0 97.994L10.311 98c2.259.05 4.207-1.604 4.567-3.878l5.71-36.097" mask="url(#c)"/></g><path stroke="#14428B" stroke-linecap="round" d="M33.286 120.514v-13.719m3.809 13.719v-8.21M29 120.514v-8.21m4.286-10.184V99"/><g stroke="#14428B" stroke-linecap="round"><path fill="#FFF" d="M48.84 63.92c0 8.792-7.128 15.92-15.92 15.92-8.793 0-15.92-7.128-15.92-15.92C17 55.126 24.127 48 32.92 48c8.792 0 15.92 7.127 15.92 15.92z"/><path d="M20.238 63.92c0-7.004 5.678-12.682 12.681-12.682 7.004 0 12.682 5.678 12.682 12.681 0 7.004-5.678 12.682-12.682 12.682M25.776 74.4a12.709 12.709 0 0 1-4.92-6.561"/></g><circle cx="33" cy="64" r="10" fill="#A7DFF2"/></g><path d="M71.5 132v130m15-131l27 85m-56-85l-27 85" stroke="#06C" stroke-dasharray="4,10,4,10,4,8"/></g></svg>